<mxfile host="app.diagrams.net" modified="2021-08-07T16:49:08.154Z" agent="5.0 (Windows NT 10.0; Win64; x64) AppleWebKit/537.36 (KHTML, like Gecko) Chrome/92.0.4515.107 Safari/537.36" etag="0FtndVfQzfuw_iZK0kPz" version="14.9.5" type="github">
  <diagram id="kfHV1j_dpcef2ELhQrf5" name="Page-1">
    <mxGraphModel dx="1420" dy="1215" grid="1" gridSize="10" guides="1" tooltips="1" connect="1" arrows="1" fold="1" page="1" pageScale="1" pageWidth="850" pageHeight="1100" math="0" shadow="0">
      <root>
        <mxCell id="0" />
        <mxCell id="1" parent="0" />
        <mxCell id="eiqkezpwlkMFHpgXi5a6-1" value="" style="html=1;outlineConnect=0;fillColor=#CCCCCC;strokeColor=#6881B3;gradientColor=none;gradientDirection=north;strokeWidth=2;shape=mxgraph.networks.cloud;fontColor=#ffffff;" vertex="1" parent="1">
          <mxGeometry x="30" y="130" width="90" height="50" as="geometry" />
        </mxCell>
        <mxCell id="eiqkezpwlkMFHpgXi5a6-23" value="" style="edgeStyle=orthogonalEdgeStyle;rounded=0;orthogonalLoop=1;jettySize=auto;html=1;endArrow=none;endFill=0;" edge="1" parent="1" source="eiqkezpwlkMFHpgXi5a6-2" target="eiqkezpwlkMFHpgXi5a6-17">
          <mxGeometry relative="1" as="geometry" />
        </mxCell>
        <mxCell id="eiqkezpwlkMFHpgXi5a6-26" value="" style="edgeStyle=orthogonalEdgeStyle;rounded=0;orthogonalLoop=1;jettySize=auto;html=1;endArrow=none;endFill=0;" edge="1" parent="1" source="eiqkezpwlkMFHpgXi5a6-2" target="eiqkezpwlkMFHpgXi5a6-16">
          <mxGeometry relative="1" as="geometry" />
        </mxCell>
        <mxCell id="eiqkezpwlkMFHpgXi5a6-2" value="" style="fontColor=#0066CC;verticalAlign=top;verticalLabelPosition=bottom;labelPosition=center;align=center;html=1;outlineConnect=0;fillColor=#CCCCCC;strokeColor=#6881B3;gradientColor=none;gradientDirection=north;strokeWidth=2;shape=mxgraph.networks.load_balancer;" vertex="1" parent="1">
          <mxGeometry x="380" y="125" width="70" height="20" as="geometry" />
        </mxCell>
        <mxCell id="eiqkezpwlkMFHpgXi5a6-40" value="" style="edgeStyle=orthogonalEdgeStyle;rounded=0;orthogonalLoop=1;jettySize=auto;html=1;endArrow=none;endFill=0;" edge="1" parent="1" source="eiqkezpwlkMFHpgXi5a6-7" target="eiqkezpwlkMFHpgXi5a6-30">
          <mxGeometry relative="1" as="geometry">
            <Array as="points">
              <mxPoint x="670" y="350" />
              <mxPoint x="670" y="300" />
              <mxPoint x="635" y="300" />
            </Array>
          </mxGeometry>
        </mxCell>
        <mxCell id="eiqkezpwlkMFHpgXi5a6-7" value="" style="fontColor=#0066CC;verticalAlign=top;verticalLabelPosition=bottom;labelPosition=center;align=center;html=1;outlineConnect=0;fillColor=#CCCCCC;strokeColor=#6881B3;gradientColor=none;gradientDirection=north;strokeWidth=2;shape=mxgraph.networks.pc;" vertex="1" parent="1">
          <mxGeometry x="565" y="320" width="80" height="60" as="geometry" />
        </mxCell>
        <mxCell id="eiqkezpwlkMFHpgXi5a6-25" value="" style="edgeStyle=orthogonalEdgeStyle;rounded=0;orthogonalLoop=1;jettySize=auto;html=1;endArrow=none;endFill=0;" edge="1" parent="1" source="eiqkezpwlkMFHpgXi5a6-10" target="eiqkezpwlkMFHpgXi5a6-16">
          <mxGeometry relative="1" as="geometry" />
        </mxCell>
        <mxCell id="eiqkezpwlkMFHpgXi5a6-10" value="" style="fontColor=#0066CC;verticalAlign=top;verticalLabelPosition=bottom;labelPosition=center;align=center;html=1;outlineConnect=0;fillColor=#CCCCCC;strokeColor=#6881B3;gradientColor=none;gradientDirection=north;strokeWidth=2;shape=mxgraph.networks.load_balancer;" vertex="1" parent="1">
          <mxGeometry x="380" y="165" width="70" height="20" as="geometry" />
        </mxCell>
        <mxCell id="eiqkezpwlkMFHpgXi5a6-39" value="" style="edgeStyle=orthogonalEdgeStyle;rounded=0;orthogonalLoop=1;jettySize=auto;html=1;endArrow=none;endFill=0;" edge="1" parent="1" source="eiqkezpwlkMFHpgXi5a6-11" target="eiqkezpwlkMFHpgXi5a6-7">
          <mxGeometry relative="1" as="geometry">
            <Array as="points">
              <mxPoint x="670" y="480" />
              <mxPoint x="670" y="350" />
            </Array>
          </mxGeometry>
        </mxCell>
        <mxCell id="eiqkezpwlkMFHpgXi5a6-11" value="" style="fontColor=#0066CC;verticalAlign=top;verticalLabelPosition=bottom;labelPosition=center;align=center;html=1;outlineConnect=0;fillColor=#CCCCCC;strokeColor=#6881B3;gradientColor=none;gradientDirection=north;strokeWidth=2;shape=mxgraph.networks.pc;" vertex="1" parent="1">
          <mxGeometry x="565" y="450" width="80" height="60" as="geometry" />
        </mxCell>
        <mxCell id="eiqkezpwlkMFHpgXi5a6-38" value="" style="edgeStyle=orthogonalEdgeStyle;rounded=0;orthogonalLoop=1;jettySize=auto;html=1;endArrow=none;endFill=0;" edge="1" parent="1" source="eiqkezpwlkMFHpgXi5a6-12" target="eiqkezpwlkMFHpgXi5a6-11">
          <mxGeometry relative="1" as="geometry">
            <Array as="points">
              <mxPoint x="670" y="600" />
              <mxPoint x="670" y="480" />
            </Array>
          </mxGeometry>
        </mxCell>
        <mxCell id="eiqkezpwlkMFHpgXi5a6-12" value="" style="fontColor=#0066CC;verticalAlign=top;verticalLabelPosition=bottom;labelPosition=center;align=center;html=1;outlineConnect=0;fillColor=#CCCCCC;strokeColor=#6881B3;gradientColor=none;gradientDirection=north;strokeWidth=2;shape=mxgraph.networks.pc;" vertex="1" parent="1">
          <mxGeometry x="565" y="570" width="80" height="60" as="geometry" />
        </mxCell>
        <mxCell id="eiqkezpwlkMFHpgXi5a6-13" value="" style="fontColor=#0066CC;verticalAlign=top;verticalLabelPosition=bottom;labelPosition=center;align=center;html=1;outlineConnect=0;fillColor=#CCCCCC;strokeColor=#6881B3;gradientColor=none;gradientDirection=north;strokeWidth=2;shape=mxgraph.networks.pc;" vertex="1" parent="1">
          <mxGeometry x="420" y="320" width="80" height="60" as="geometry" />
        </mxCell>
        <mxCell id="eiqkezpwlkMFHpgXi5a6-37" value="" style="edgeStyle=orthogonalEdgeStyle;rounded=0;orthogonalLoop=1;jettySize=auto;html=1;endArrow=none;endFill=0;" edge="1" parent="1" source="eiqkezpwlkMFHpgXi5a6-14" target="eiqkezpwlkMFHpgXi5a6-13">
          <mxGeometry relative="1" as="geometry">
            <Array as="points">
              <mxPoint x="520" y="480" />
              <mxPoint x="520" y="350" />
            </Array>
          </mxGeometry>
        </mxCell>
        <mxCell id="eiqkezpwlkMFHpgXi5a6-14" value="" style="fontColor=#0066CC;verticalAlign=top;verticalLabelPosition=bottom;labelPosition=center;align=center;html=1;outlineConnect=0;fillColor=#CCCCCC;strokeColor=#6881B3;gradientColor=none;gradientDirection=north;strokeWidth=2;shape=mxgraph.networks.pc;" vertex="1" parent="1">
          <mxGeometry x="420" y="450" width="80" height="60" as="geometry" />
        </mxCell>
        <mxCell id="eiqkezpwlkMFHpgXi5a6-36" value="" style="edgeStyle=orthogonalEdgeStyle;rounded=0;orthogonalLoop=1;jettySize=auto;html=1;endArrow=none;endFill=0;" edge="1" parent="1" source="eiqkezpwlkMFHpgXi5a6-15" target="eiqkezpwlkMFHpgXi5a6-14">
          <mxGeometry relative="1" as="geometry">
            <Array as="points">
              <mxPoint x="520" y="600" />
              <mxPoint x="520" y="480" />
            </Array>
          </mxGeometry>
        </mxCell>
        <mxCell id="eiqkezpwlkMFHpgXi5a6-15" value="" style="fontColor=#0066CC;verticalAlign=top;verticalLabelPosition=bottom;labelPosition=center;align=center;html=1;outlineConnect=0;fillColor=#CCCCCC;strokeColor=#6881B3;gradientColor=none;gradientDirection=north;strokeWidth=2;shape=mxgraph.networks.pc;" vertex="1" parent="1">
          <mxGeometry x="410" y="570" width="80" height="60" as="geometry" />
        </mxCell>
        <mxCell id="eiqkezpwlkMFHpgXi5a6-27" value="" style="edgeStyle=orthogonalEdgeStyle;rounded=0;orthogonalLoop=1;jettySize=auto;html=1;endArrow=none;endFill=0;" edge="1" parent="1" source="eiqkezpwlkMFHpgXi5a6-16" target="eiqkezpwlkMFHpgXi5a6-19">
          <mxGeometry relative="1" as="geometry" />
        </mxCell>
        <mxCell id="eiqkezpwlkMFHpgXi5a6-31" value="" style="edgeStyle=orthogonalEdgeStyle;rounded=0;orthogonalLoop=1;jettySize=auto;html=1;endArrow=none;endFill=0;" edge="1" parent="1" source="eiqkezpwlkMFHpgXi5a6-16" target="eiqkezpwlkMFHpgXi5a6-30">
          <mxGeometry relative="1" as="geometry" />
        </mxCell>
        <mxCell id="eiqkezpwlkMFHpgXi5a6-16" value="" style="fontColor=#0066CC;verticalAlign=top;verticalLabelPosition=bottom;labelPosition=center;align=center;html=1;outlineConnect=0;fillColor=#CCCCCC;strokeColor=#6881B3;gradientColor=none;gradientDirection=north;strokeWidth=2;shape=mxgraph.networks.router;" vertex="1" parent="1">
          <mxGeometry x="540" y="145" width="80" height="20" as="geometry" />
        </mxCell>
        <mxCell id="eiqkezpwlkMFHpgXi5a6-22" value="" style="edgeStyle=orthogonalEdgeStyle;rounded=0;orthogonalLoop=1;jettySize=auto;html=1;exitX=1;exitY=0.5;exitDx=0;exitDy=0;exitPerimeter=0;endArrow=none;endFill=0;" edge="1" parent="1" source="eiqkezpwlkMFHpgXi5a6-17" target="eiqkezpwlkMFHpgXi5a6-10">
          <mxGeometry relative="1" as="geometry">
            <Array as="points">
              <mxPoint x="330" y="160" />
              <mxPoint x="330" y="180" />
            </Array>
          </mxGeometry>
        </mxCell>
        <mxCell id="eiqkezpwlkMFHpgXi5a6-24" value="" style="edgeStyle=orthogonalEdgeStyle;rounded=0;orthogonalLoop=1;jettySize=auto;html=1;endArrow=none;endFill=0;" edge="1" parent="1" source="eiqkezpwlkMFHpgXi5a6-17" target="eiqkezpwlkMFHpgXi5a6-1">
          <mxGeometry relative="1" as="geometry" />
        </mxCell>
        <mxCell id="eiqkezpwlkMFHpgXi5a6-17" value="" style="fontColor=#0066CC;verticalAlign=top;verticalLabelPosition=bottom;labelPosition=center;align=center;html=1;outlineConnect=0;fillColor=#CCCCCC;strokeColor=#6881B3;gradientColor=none;gradientDirection=north;strokeWidth=2;shape=mxgraph.networks.firewall;" vertex="1" parent="1">
          <mxGeometry x="220" y="125" width="60" height="60" as="geometry" />
        </mxCell>
        <mxCell id="eiqkezpwlkMFHpgXi5a6-47" value="" style="edgeStyle=orthogonalEdgeStyle;rounded=0;orthogonalLoop=1;jettySize=auto;html=1;endArrow=none;endFill=0;" edge="1" parent="1" source="eiqkezpwlkMFHpgXi5a6-18" target="eiqkezpwlkMFHpgXi5a6-46">
          <mxGeometry relative="1" as="geometry" />
        </mxCell>
        <mxCell id="eiqkezpwlkMFHpgXi5a6-18" value="" style="fontColor=#0066CC;verticalAlign=top;verticalLabelPosition=bottom;labelPosition=center;align=center;html=1;outlineConnect=0;fillColor=#CCCCCC;strokeColor=#6881B3;gradientColor=none;gradientDirection=north;strokeWidth=2;shape=mxgraph.networks.firewall;" vertex="1" parent="1">
          <mxGeometry x="330" y="220" width="60" height="60" as="geometry" />
        </mxCell>
        <mxCell id="eiqkezpwlkMFHpgXi5a6-19" value="" style="fontColor=#0066CC;verticalAlign=top;verticalLabelPosition=bottom;labelPosition=center;align=center;html=1;outlineConnect=0;fillColor=#CCCCCC;strokeColor=#6881B3;gradientColor=none;gradientDirection=north;strokeWidth=2;shape=mxgraph.networks.server;" vertex="1" parent="1">
          <mxGeometry x="710" y="120" width="70" height="70" as="geometry" />
        </mxCell>
        <mxCell id="eiqkezpwlkMFHpgXi5a6-41" value="" style="edgeStyle=orthogonalEdgeStyle;rounded=0;orthogonalLoop=1;jettySize=auto;html=1;endArrow=none;endFill=0;" edge="1" parent="1" source="eiqkezpwlkMFHpgXi5a6-28" target="eiqkezpwlkMFHpgXi5a6-18">
          <mxGeometry relative="1" as="geometry" />
        </mxCell>
        <mxCell id="eiqkezpwlkMFHpgXi5a6-28" value="" style="fontColor=#0066CC;verticalAlign=top;verticalLabelPosition=bottom;labelPosition=center;align=center;html=1;outlineConnect=0;fillColor=#CCCCCC;strokeColor=#6881B3;gradientColor=none;gradientDirection=north;strokeWidth=2;shape=mxgraph.networks.wireless_hub;" vertex="1" parent="1">
          <mxGeometry x="160" y="217.5" width="70" height="65" as="geometry" />
        </mxCell>
        <mxCell id="eiqkezpwlkMFHpgXi5a6-32" value="" style="edgeStyle=orthogonalEdgeStyle;rounded=0;orthogonalLoop=1;jettySize=auto;html=1;endArrow=none;endFill=0;startArrow=none;" edge="1" parent="1" source="eiqkezpwlkMFHpgXi5a6-46" target="eiqkezpwlkMFHpgXi5a6-16">
          <mxGeometry relative="1" as="geometry" />
        </mxCell>
        <mxCell id="eiqkezpwlkMFHpgXi5a6-33" value="" style="edgeStyle=orthogonalEdgeStyle;rounded=0;orthogonalLoop=1;jettySize=auto;html=1;endArrow=none;endFill=0;" edge="1" parent="1" source="eiqkezpwlkMFHpgXi5a6-29" target="eiqkezpwlkMFHpgXi5a6-13">
          <mxGeometry relative="1" as="geometry">
            <Array as="points">
              <mxPoint x="525" y="350" />
            </Array>
          </mxGeometry>
        </mxCell>
        <mxCell id="eiqkezpwlkMFHpgXi5a6-29" value="" style="fontColor=#0066CC;verticalAlign=top;verticalLabelPosition=bottom;labelPosition=center;align=center;html=1;outlineConnect=0;fillColor=#CCCCCC;strokeColor=#6881B3;gradientColor=none;gradientDirection=north;strokeWidth=2;shape=mxgraph.networks.switch;" vertex="1" parent="1">
          <mxGeometry x="490" y="260" width="70" height="20" as="geometry" />
        </mxCell>
        <mxCell id="eiqkezpwlkMFHpgXi5a6-30" value="" style="fontColor=#0066CC;verticalAlign=top;verticalLabelPosition=bottom;labelPosition=center;align=center;html=1;outlineConnect=0;fillColor=#CCCCCC;strokeColor=#6881B3;gradientColor=none;gradientDirection=north;strokeWidth=2;shape=mxgraph.networks.switch;" vertex="1" parent="1">
          <mxGeometry x="600" y="260" width="70" height="20" as="geometry" />
        </mxCell>
        <mxCell id="eiqkezpwlkMFHpgXi5a6-46" value="" style="shape=waypoint;size=6;pointerEvents=1;points=[];fillColor=#CCCCCC;resizable=0;rotatable=0;perimeter=centerPerimeter;snapToPoint=1;fontColor=#0066CC;verticalAlign=top;strokeColor=#6881B3;strokeWidth=2;gradientDirection=north;" vertex="1" parent="1">
          <mxGeometry x="505" y="190" width="40" height="40" as="geometry" />
        </mxCell>
        <mxCell id="eiqkezpwlkMFHpgXi5a6-48" value="" style="edgeStyle=orthogonalEdgeStyle;rounded=0;orthogonalLoop=1;jettySize=auto;html=1;endArrow=none;endFill=0;" edge="1" parent="1" source="eiqkezpwlkMFHpgXi5a6-29" target="eiqkezpwlkMFHpgXi5a6-46">
          <mxGeometry relative="1" as="geometry">
            <mxPoint x="525" y="260" as="sourcePoint" />
            <mxPoint x="580" y="165" as="targetPoint" />
          </mxGeometry>
        </mxCell>
      </root>
    </mxGraphModel>
  </diagram>
</mxfile>
